<svg xmlns="http://www.w3.org/2000/svg" width="200" height="34.9" viewBox="0 0 369.7777777777778 64.5308578567441" class="looka-1j8o68f"><defs id="SvgjsDefs1558"/><g id="SvgjsG1559" transform="matrix(0.11063065182104566,0,0,0.11063065182104566,0,-5.066883768999402)" fill="#111111"><g xmlns="http://www.w3.org/2000/svg"><path d="M587.1,45.8c-52.2,0-103.5,13.8-148.2,40.5c-43.8-25.9-95.1-40.5-147.2-40.5C130.8,45.8,0,176.5,0,337.4         c0,160.9,130.8,291.7,291.7,291.7c52,0,103.1-13.7,147.7-40.2c44.6,26.5,95.7,40.2,147.7,40.2c160.9,0,291.7-130.8,291.7-291.7         C878.8,176.5,748,45.8,587.1,45.8z M439.4,559.9c-46.1-30.9-80.6-74-100.4-123.3l113.7,113.7C448.4,553.6,443.9,556.8,439.4,559.9z          M473.4,532.7L323.8,383.2c-2.6-15-3.9-30.3-3.9-45.8c0-3.6,0.1-7.2,0.2-10.8l178.4,179.1C490.8,515.3,482.4,524.3,473.4,532.7z          M514.7,483.7L323.8,292.1c2.5-14.5,6.1-28.6,10.9-42.3l199.2,199.2C528.3,461,521.9,472.6,514.7,483.7z M544.6,421.5L345.8,222.6         c5.5-11.5,11.8-22.6,18.9-33.3l190.1,190.1C552.5,393.8,549.1,407.9,544.6,421.5z M380.9,167.4c7.9-9.6,16.5-18.7,25.8-27.3         l146.6,146.6c3.1,16.5,4.7,33.4,4.7,50.7c0,2.3,0,4.6-0.1,7L380.9,167.4z M427.6,122.8c3.7-2.8,7.6-5.5,11.5-8.2         c44.6,29.3,78.1,70.3,98,117.6L427.6,122.8z M24.5,337.4C24.5,189.7,144,70.2,291.7,70.2c44.2,0,86.6,10.3,125.1,31         c-76.2,54.6-120.4,142.1-120.4,236.2S341.6,519,416.8,573.6c-38.6,20.7-81.9,31-125.1,31C144,604.7,24.5,485.2,24.5,337.4z          M587.1,604.7c-44.2,0-86.6-10.3-125.1-31c76.2-54.6,120.4-142.1,120.4-236.2S538.2,155.8,462,101.3c38.6-20.7,80.9-31,125.1-31         c147.7,0,267.2,119.5,267.2,267.2C854.4,485.2,734.9,604.7,587.1,604.7z"/></g></g><g id="SvgjsG1560" transform="matrix(1.673202783375811,0,0,1.673202783375811,113.48694370665326,10.641871783670073)" fill="#111111"><path d="M4.043 18.2422 l4.7168 0 l0 1.7578 l-6.6602 0 l0 -13.809 l1.9434 0 l0 12.051 z M11.396475 20 l0 -13.809 l1.9434 0 l0 13.809 l-1.9434 0 z M32.36321875 20 l-1.9043 0 l-0.9082 -11.23 l-4.2676 11.23 l-1.1816 0 l-4.2383 -11.191 l-0.92773 11.191 l-1.9141 0 l1.0645 -13.809 l2.627 0 l3.9746 10.439 l3.9941 -10.439 l2.627 0 z M41.357446875 6.191000000000001 c2.5293 0 4.1602 1.9141 4.1602 4.2773 c0 2.3926 -1.6309 4.2383 -4.1602 4.2383 l-3.3789 0 l0 5.293 l-1.9434 0 l0 -13.809 l5.3223 0 z M41.064446875 13.0273 c1.6211 0 2.5293 -1.0449 2.5293 -2.5879 c0 -1.4844 -0.9082 -2.5781 -2.5293 -2.5781 l-3.0859 0 l0 5.166 l3.0859 0 z M55.166053125 12.773399999999999 c1.6309 0.41016 2.7246 1.5332 2.7246 3.457 c0 2.2168 -1.5039 3.7695 -3.9844 3.7695 l-5.4297 0 l0 -13.809 l4.2383 0 c2.5488 0 4.1602 1.4844 4.1602 3.6719 c0 1.3086 -0.5957 2.3828 -1.709 2.9102 z M55.058553125 9.99 c0 -1.1914 -0.85938 -2.1191 -2.3535 -2.1191 l-2.3438 0 l0 4.2969 l2.6465 0 c1.25 0 2.0508 -0.97656 2.0508 -2.1777 z M53.574253125 18.291 c1.5723 0 2.4219 -1.0547 2.4219 -2.2559 c0 -1.2695 -0.88867 -2.2852 -2.5391 -2.2852 l-3.0957 0 l0 4.541 l3.2129 0 z M61.02538125 20 l0 -13.809 l1.9434 0 l0 13.809 l-1.9434 0 z M68.408225 18.2422 l7.8027 0 l0 1.7578 l-10.186 0 l0 -1.5723 l7.627 -10.488 l-7.6074 0 l0 -1.748 l9.9316 0 l0 1.5918 z M87.187375 20 l-4.8438 -6.2988 l-1.1914 0 l0 6.2988 l-1.9434 0 l0 -13.809 l1.9434 0 l0 5.7715 l1.1719 0 l4.707 -5.7715 l2.3828 0 l-5.4102 6.582 l5.6738 7.2266 l-2.4902 0 z M101.201015625 20 l-1.1523 -3.2227 l-6.1719 0 l-1.1523 3.2227 l-2.0215 0 l5.0879 -13.809 l2.3438 0 l5.0879 13.809 l-2.0215 0 z M94.482415625 15.0781 l4.9609 0 l-2.4805 -6.9629 z M113.212865625 6.191000000000001 l0 1.748 l-3.4961 0 l0 12.061 l-1.9238 0 l0 -12.061 l-3.5059 0 l0 -1.748 l8.9258 0 z M120.634734375 20.18555 c-2.8613 0 -5.0781 -1.6895 -5.0781 -4.8047 l0 -9.1895 l1.9434 0 l0 8.916 c0 2.2754 1.3672 3.3203 3.1348 3.3203 s3.1641 -1.0547 3.1641 -3.3203 l0 -8.916 l1.9434 0 l0 9.1895 c0 3.1152 -2.2266 4.8047 -5.1074 4.8047 z M137.10939375 20 l-3.5742 -6.2109 l-1.9336 0 l0 6.2109 l-1.9434 0 l0 -13.809 l4.6484 0 c2.8906 0 4.209 1.7676 4.209 3.9355 c0 1.9238 -1.1328 3.2617 -3.0273 3.584 l3.8965 6.2891 l-2.2754 0 z M131.60159375 7.871 l0 4.4336 l2.4414 0 c1.7969 0 2.6074 -0.89844 2.6074 -2.207 c0 -1.2891 -0.81055 -2.2266 -2.6074 -2.2266 l-2.4414 0 z M151.1521875 20 l-1.1523 -3.2227 l-6.1719 0 l-1.1523 3.2227 l-2.0215 0 l5.0879 -13.809 l2.3438 0 l5.0879 13.809 l-2.0215 0 z M144.4335875 15.0781 l4.9609 0 l-2.4805 -6.9629 z"/></g></svg>